<svg id="Layer_1" data-name="Layer 1" xmlns="http://www.w3.org/2000/svg" 
viewBox="0 0 1280 550"><defs><style>.cls-1{fill:none;}.cls-2,.cls-4,.cls-7
{fill:#3d6481;}.cls-3,.cls-6{fill:#f17173;}.cls-4{font-size:497px;font-family
:CeraPro-Medium, Cera Pro;font-weight:500;}.cls-5{letter-spacing:0.02em;}.cls-
6{letter-spacing:-0.03em;}.cls-7{font-size:80px;font-family:CeraPro-Bold, Cera 
Pro;font-weight:700;letter-spacing:0.88em;}.cls-8{letter-spacing:0.86em;}.cls-9{
    letter-spacing:0.88em;}.cls-10{letter-spacing:0.87em;}</style></defs><polygon
     class="cls-1" points="248.01 192.83 215.11 245.02 277.66 245.02 248.01 192.8
     3"/><polygon class="cls-2" points="280.12 106.65 274.33 115.79 268.53 124.93
      403.41 362.33 366.28 362.33 323.99 287.89 172.88 287.89 130.58 362.33 93.46
       362.33 135.75 287.89 124.76 287.89 113.78 287.89 60.5 381.67 141.57 381.67
        183.86 307.23 313.01 307.23 355.3 381.67 436.37 381.67 280.12 106.65"/><polygon 
        class="cls-3" points="250.46 154.11 206.72 223.15 205.58 224.96 214.34 225.39 
        216.54 225.5 216.54 225.5 227.5 226.03 249.51 191.11 279.17 243.31 216.61 243.31 
        205.31 243.31 194.01 243.31 161.61 243.31 255.39 78.09 260.88 68.42 249.94 49.16 
        139.64 243.31 129.51 261.13 181.83 262.64 312.12 262.64 250.46 154.11"/><text 
        class="cls-4" transform="translate(436.37 382.67) scale(0.98 1)"><tspan 
        class="cls-5">M</tspan><tspan x="404.06" y="0">I</tspan><tspan class="cls-6"
         x="539.24" y="0">T</tspan></text><text class="cls-7" 
         transform="translate(55.42 501.42) scale(0.98 1)">EL<tspan class="cls-8"
         x="228.56" y="0">E</tspan><tspan class="cls-9" x="343.6" y="0">CTRI</tspan><tspan 
         class="cls-10" x="803.68" y="0">C</tspan><tspan x="930.88" y="0">ALS</tspan>
         </text></svg>