<svg id="Layer_1" data-name="Layer 1" xmlns="http://www.w3.org/2000/svg" viewBox="0 0 546.27 172.89"><defs><style>.cls-1,.cls-2,.cls-3{fill:#221f1f;}.cls-2{font-size:145.78px;letter-spacing:0.02em;}.cls-2,.cls-3{font-family:CeraPro-Bold, Cera Pro;font-weight:700;}.cls-3{font-size:32.38px;letter-spacing:0.12em;}</style></defs><g id="logo"><polygon class="cls-1" points="107.89 37.79 105.04 42.28 102.2 46.77 168.46 163.39 150.22 163.39 129.44 126.83 55.2 126.83 34.43 163.39 16.19 163.39 36.97 126.83 31.57 126.83 26.17 126.83 0 172.89 39.83 172.89 60.6 136.32 124.04 136.32 144.82 172.89 184.65 172.89 107.89 37.79"/><polygon class="cls-1" points="93.32 61.1 71.83 95.02 71.27 95.91 75.58 96.12 76.66 96.17 76.66 96.17 82.04 96.44 92.85 79.28 107.42 104.92 76.69 104.92 71.14 104.92 65.59 104.92 49.67 104.92 95.74 23.76 98.44 19.01 93.06 9.55 38.88 104.92 33.9 113.67 59.6 114.42 123.61 114.42 93.32 61.1"/><text class="cls-2" transform="translate(230.4 120.99) scale(0.98 1)">amit</text><text class="cls-3" transform="translate(235.56 163.56) scale(0.98 1)">electricals</text></g></svg>