<svg id="Layer_1" data-name="Layer 1" xmlns="http://www.w3.org/2000/svg" viewBox="0 0 548.58 185.19"><defs><style>.cls-1,.cls-4{fill:#3d6480;}.cls-2,.cls-3{fill:#f17073;}.cls-3{font-size:145.78px;letter-spacing:0.02em;}.cls-3,.cls-4{font-family:CeraPro-Bold, Cera Pro;font-weight:700;}.cls-4{font-size:50px;letter-spacing:0.14em;}</style></defs><polygon class="cls-1" points="107.89 38.52 105.04 43.01 102.2 47.51 168.46 164.13 150.22 164.13 129.44 127.56 55.2 127.56 34.43 164.13 16.19 164.13 36.97 127.56 31.57 127.56 26.17 127.56 0 173.63 39.83 173.63 60.6 137.06 124.04 137.06 144.82 173.63 184.65 173.63 107.89 38.52"/><polygon class="cls-2" points="93.32 61.84 71.83 95.75 71.27 96.64 75.58 96.85 76.66 96.91 76.66 96.91 82.04 97.17 92.85 80.02 107.42 105.66 76.69 105.66 71.14 105.66 65.59 105.66 49.67 105.66 95.74 24.5 98.44 19.74 93.06 10.28 38.88 105.66 33.9 114.41 59.6 115.15 123.61 115.15 93.32 61.84"/><text class="cls-3" transform="translate(232.02 120.99) scale(0.98 1)">amit</text><text class="cls-4" transform="translate(235.66 172.89) scale(0.98 1)">electricals</text></svg>