<svg id="Layer_1" data-name="Layer 1" xmlns="http://www.w3.org/2000/svg" viewBox="0 0 1280 550"><defs><style>.cls-1,.cls-2,.cls-5{fill:#fff;}.cls-2{font-size:497px;font-family:CeraPro-Medium, Cera Pro;font-weight:500;}.cls-3{letter-spacing:0.02em;}.cls-4{letter-spacing:-0.03em;}.cls-5{font-size:80px;font-family:CeraPro-Bold, Cera Pro;font-weight:700;letter-spacing:0.88em;}.cls-6{letter-spacing:0.86em;}.cls-7{letter-spacing:0.88em;}.cls-8{letter-spacing:0.87em;}</style></defs><polygon class="cls-1" points="319.12 108.65 313.33 117.79 307.53 126.93 442.41 364.33 405.28 364.33 362.99 289.89 211.88 289.89 169.58 364.33 132.46 364.33 174.75 289.89 163.76 289.89 152.78 289.89 99.5 383.67 180.57 383.67 222.86 309.23 352.01 309.23 394.3 383.67 475.37 383.67 319.12 108.65"/><polygon class="cls-1" points="289.46 156.11 245.72 225.15 244.58 226.96 253.34 227.39 255.54 227.5 255.54 227.5 266.5 228.03 288.51 193.11 318.17 245.31 255.61 245.31 244.31 245.31 233.01 245.31 200.61 245.31 294.39 80.09 299.88 70.42 288.94 51.16 178.64 245.31 168.51 263.13 220.83 264.64 351.12 264.64 289.46 156.11"/><text class="cls-2" transform="translate(475.37 384.67) scale(0.98 1)"><tspan class="cls-3">M</tspan><tspan x="404.06" y="0">I</tspan><tspan class="cls-4" x="539.24" y="0">T</tspan></text><text class="cls-5" transform="translate(94.42 503.42) scale(0.98 1)">EL<tspan class="cls-6" x="228.56" y="0">E</tspan><tspan class="cls-7" x="343.6" y="0">CTRI</tspan><tspan class="cls-8" x="803.68" y="0">C</tspan><tspan x="930.88" y="0">ALS</tspan></text></svg>